2.2Hzlow3min_grf.mot
version=1
nRows=27
nColumns 19
inDegrees=yes
endheader
time	1_ground_force_vx	1_ground_force_vy	1_ground_force_vz	1_ground_force_px	1_ground_force_py	1_ground_force_pz	1_ground_torque_x	1_ground_torque_y	1_ground_torque_z	2_ground_force_vx	2_ground_force_vy	2_ground_force_vz	2_ground_force_px	2_ground_force_py	2_ground_force_pz	2_ground_torque_x	2_ground_torque_y	2_ground_torque_z
            3.751500	          -93.554294	         1111.539726	         -130.372034	           -0.186241	            0.006187	           -0.394930	           -0.114462	            1.359943	           -0.159507	          -93.597086	          932.344179	          118.153855	           -0.183216	            0.005983	           -0.742750	            0.310826	           -3.096212	           -0.392376
            3.752000	          -93.737854	         1111.359910	         -130.464056	           -0.186318	            0.006188	           -0.395136	           -0.107530	            1.274878	           -0.149660	          -92.943231	          932.899532	          118.014770	           -0.183343	            0.005983	           -0.742823	            0.311550	           -3.127122	           -0.395591
            3.752500	          -93.738800	         1112.803215	         -130.733015	           -0.186311	            0.006187	           -0.394897	           -0.106558	            1.264980	           -0.148611	          -92.058923	          934.558902	          118.348794	           -0.183410	            0.005983	           -0.742949	            0.306976	           -3.116339	           -0.394641
            3.753000	          -94.015268	         1112.985695	         -131.281846	           -0.186436	            0.006187	           -0.394908	           -0.102755	            1.216447	           -0.143486	          -91.682589	          934.190300	          118.816602	           -0.183528	            0.005982	           -0.742787	            0.292948	           -2.984961	           -0.379647
            3.753500	          -94.107758	         1113.708041	         -131.553639	           -0.186593	            0.006187	           -0.394892	           -0.098652	            1.167481	           -0.137905	          -91.031408	          935.482216	          118.680146	           -0.183674	            0.005982	           -0.742994	            0.292062	           -3.001368	           -0.380769
            3.754000	          -93.924588	         1113.528052	         -131.646602	           -0.186472	            0.006187	           -0.394922	           -0.102542	            1.215698	           -0.143726	          -90.190662	          936.220987	          118.917048	           -0.183951	            0.005980	           -0.742806	            0.290546	           -3.016003	           -0.383087
            3.754500	          -94.016781	         1113.168669	         -131.877195	           -0.186481	            0.006187	           -0.395024	           -0.099974	            1.183701	           -0.140233	          -89.630300	          936.774161	          119.294205	           -0.183922	            0.005981	           -0.742964	            0.286369	           -2.992992	           -0.381145
            3.755000	          -93.880380	         1114.972545	         -132.190788	           -0.186605	            0.006186	           -0.394739	           -0.096691	            1.148353	           -0.136148	          -88.787622	          936.960951	          119.388359	           -0.183987	            0.005980	           -0.742841	            0.286582	           -3.024254	           -0.385353
            3.755500	          -93.697813	         1114.433387	         -132.560409	           -0.186662	            0.006186	           -0.394819	           -0.094950	            1.129321	           -0.134331	          -88.226075	          937.147015	          119.435713	           -0.184171	            0.005980	           -0.742911	            0.274975	           -2.920814	           -0.372246
            3.756000	          -93.652418	         1116.236310	         -132.598660	           -0.186704	            0.006185	           -0.394577	           -0.092842	            1.106574	           -0.131451	          -87.762122	          938.436916	          119.674746	           -0.184317	            0.005980	           -0.742978	            0.272891	           -2.918016	           -0.372122
            3.756500	          -93.378682	         1116.058549	         -133.150371	           -0.186760	            0.006186	           -0.394683	           -0.087278	            1.043140	           -0.124451	          -87.017073	          939.727831	          119.913675	           -0.184466	            0.005979	           -0.742967	            0.268226	           -2.896669	           -0.369629
            3.757000	          -93.149610	         1115.517975	         -133.244964	           -0.186824	            0.006186	           -0.394740	           -0.091258	            1.092860	           -0.130539	          -86.128215	          940.098992	          120.008467	           -0.184675	            0.005979	           -0.743132	            0.258539	           -2.821977	           -0.360240
            3.757500	          -93.379249	         1114.797974	         -133.476793	           -0.186851	            0.006187	           -0.394863	           -0.080350	            0.959246	           -0.114852	          -85.616006	          941.020111	          120.433878	           -0.184751	            0.005979	           -0.743071	            0.249207	           -2.739076	           -0.350553
            3.758000	          -92.967973	         1116.962692	         -133.835389	           -0.186915	            0.006185	           -0.394529	           -0.087307	            1.048953	           -0.125686	          -84.585941	          941.207745	          120.481033	           -0.184896	            0.005978	           -0.743069	            0.249067	           -2.771430	           -0.354762
            3.758500	          -92.693000	         1116.782768	         -133.882681	           -0.187133	            0.006185	           -0.394501	           -0.086651	            1.043989	           -0.125156	          -84.214382	          942.129193	          120.671871	           -0.185008	            0.005978	           -0.743063	            0.243508	           -2.724193	           -0.348926
            3.759000	          -92.465182	         1116.965346	         -134.432764	           -0.187140	            0.006185	           -0.394511	           -0.080078	            0.967325	           -0.116423	          -83.184874	          942.500025	          121.001236	           -0.185188	            0.005977	           -0.743004	            0.238752	           -2.705101	           -0.347290
            3.759500	          -92.189395	         1116.063301	         -134.208035	           -0.187180	            0.006186	           -0.394680	           -0.077772	            0.941526	           -0.113220	          -82.579750	          943.606688	          121.145711	           -0.185404	            0.005976	           -0.743093	            0.236380	           -2.701019	           -0.346772
            3.760000	          -91.685792	         1116.605148	         -134.436243	           -0.187357	            0.006185	           -0.394616	           -0.072582	            0.883949	           -0.106425	          -82.065650	          943.976160	          121.334519	           -0.185604	            0.005975	           -0.742992	            0.232905	           -2.679040	           -0.344352
            3.760500	          -91.319815	         1117.687735	         -134.661792	           -0.187313	            0.006185	           -0.394393	           -0.077447	            0.947890	           -0.114204	          -81.318607	          944.714593	          121.571461	           -0.185667	            0.005975	           -0.743031	            0.225840	           -2.623682	           -0.337631
            3.761000	          -91.045150	         1116.787412	         -134.895615	           -0.187340	            0.006185	           -0.394510	           -0.072194	            0.885549	           -0.106965	          -80.386892	          946.190767	          121.670175	           -0.185901	            0.005975	           -0.743195	            0.221933	           -2.612256	           -0.335909
            3.761500	          -90.495743	         1117.509686	         -135.123164	           -0.187414	            0.006185	           -0.394547	           -0.073142	            0.903209	           -0.109211	          -79.866734	          944.902410	          121.993860	           -0.185982	            0.005974	           -0.743098	            0.216451	           -2.560824	           -0.330621
            3.762000	          -90.358803	         1118.231440	         -135.303852	           -0.187630	            0.006184	           -0.394374	           -0.067839	            0.839534	           -0.101582	          -79.125029	          947.114258	          122.189139	           -0.186272	            0.005973	           -0.743115	            0.212395	           -2.542335	           -0.327992
            3.762500	          -89.624650	         1118.951390	         -134.981570	           -0.187695	            0.006184	           -0.394223	           -0.069531	            0.868087	           -0.104719	          -78.141174	          947.117643	          122.235641	           -0.186411	            0.005973	           -0.743176	            0.210089	           -2.546401	           -0.328640
            3.763000	          -89.075518	         1118.772847	         -135.396424	           -0.187875	            0.006184	           -0.394307	           -0.064808	            0.813979	           -0.098510	          -77.535864	          948.222800	          122.802462	           -0.186536	            0.005972	           -0.743134	            0.199989	           -2.445759	           -0.316745
            3.763500	          -88.570807	         1118.231588	         -135.262422	           -0.187864	            0.006184	           -0.394354	           -0.066425	            0.838638	           -0.101442	          -77.021744	          948.592105	          123.038205	           -0.186794	            0.005972	           -0.743231	            0.196922	           -2.425268	           -0.314572
            3.764000	          -88.067087	         1117.511925	         -135.541908	           -0.187898	            0.006185	           -0.394489	           -0.067166	            0.852297	           -0.103374	          -76.087314	          949.331381	          123.228147	           -0.186927	            0.005971	           -0.743264	            0.195138	           -2.434707	           -0.316038
            3.764500	          -87.242494	         1116.972253	         -135.821389	           -0.188006	            0.006185	           -0.394469	           -0.071552	            0.916088	           -0.111394	          -75.339669	          949.886236	          123.323655	           -0.186935	            0.005972	           -0.743359	            0.192022	           -2.421025	           -0.314321
